<svg width="1024" height="1024" viewBox="0 0 1024 1024" fill="none" xmlns="http://www.w3.org/2000/svg">
  <defs>
    <linearGradient id="bg" x1="170" y1="120" x2="850" y2="920" gradientUnits="userSpaceOnUse">
      <stop stop-color="#5F5378"/>
      <stop offset="0.55" stop-color="#272331"/>
      <stop offset="1" stop-color="#111014"/>
    </linearGradient>
    <linearGradient id="spark" x1="360" y1="260" x2="690" y2="760" gradientUnits="userSpaceOnUse">
      <stop stop-color="#FFFFFF"/>
      <stop offset="1" stop-color="#D6C9FF"/>
    </linearGradient>
  </defs>
  <rect x="72" y="72" width="880" height="880" rx="224" fill="url(#bg)"/>
  <path d="M512 218C526 350 597 421 729 435C597 449 526 520 512 652C498 520 427 449 295 435C427 421 498 350 512 218Z" fill="url(#spark)"/>
  <path d="M721 574C729 650 770 691 846 699C770 707 729 748 721 824C713 748 672 707 596 699C672 691 713 650 721 574Z" fill="white" fill-opacity="0.86"/>
</svg>
